/* XPM */
static char *_2a57e2bc31140c9b1a002b415e2467bn0CoGTRI5XJMPtIK[] = {
/* columns rows colors chars-per-pixel */
"32 32 68 1 ",
"  c None",
". c #211C1A",
"X c #122020",
"o c #3F2331",
"O c #422433",
"+ c #482734",
"@ c #4D2B35",
"# c #4E2C35",
"$ c #502D35",
"% c #502C36",
"& c #512C36",
"* c #512E36",
"= c #552E37",
"- c #562E37",
"; c #572F37",
": c #5B3138",
"> c #5D3338",
", c #5E3338",
"< c #5F3439",
"1 c #623639",
"2 c #6A3C3A",
"3 c #6B3D3A",
"4 c #6C3D3A",
"5 c #6D3E3A",
"6 c #24523B",
"7 c #215D3C",
"8 c #1F6C37",
"9 c #1E6E36",
"0 c #1D6E3D",
"q c #1A7A3E",
"w c #71413B",
"e c #74433C",
"r c #77453C",
"t c #79473C",
"y c #7E4A3D",
"u c #463D4B",
"i c #463E4D",
"p c #663C43",
"a c #693F45",
"s c #6C3D44",
"d c #53424C",
"f c #6B535A",
"g c #824D3E",
"h c #824A4C",
"j c #844B4D",
"k c #BB7547",
"l c #A1635D",
"z c #986F6D",
"x c #93756B",
"c c #9D7370",
"v c #A0716C",
"b c #A4756F",
"n c #169533",
"m c #169134",
"M c #169234",
"N c #14A02E",
"B c #28AA30",
"V c #2BAB30",
"C c #3AB232",
"Z c #3CB332",
"A c #42B633",
"S c #59C135",
"D c #428A5F",
"F c #639A62",
"G c #C8887B",
"H c #6D758D",
"J c #C39287",
"K c #D19B8D",
/* pixels */
"            kkkkkk              ",
"           keeeeeek             ",
"          krwwwwwwrk            ",
"          tw>>ww>>wt            ",
"         kw>::>>::>wk           ",
"         y<::::::::<y           ",
"        k<4::::::::4<k          ",
"        g+@4::::::4@+g          ",
"      SSwOO#3::::3#OOwSS        ",
"    SSBB1OOO$3333$OOO1BBSS      ",
"    BB88:OOOO$$$$OOOO:88BB      ",
"    8866:OOOOOOOOOOOO:6688      ",
"        :OOOOOOOOOOOO:          ",
"          OOOOOOOOOO            ",
"         ksicOOOOcisk           ",
"        HxfdvzzzzvdfxH          ",
"        FDu::bbbb::uDF          ",
"        CNO::::::::ONC          ",
"       ZNNO$$$::$$$ONNZ         ",
"       NMMOOOO$$OOOOMMN         ",
"       Mqq OOOOOOOO qqM         ",
"      Aqq  aaOOOOaa  qqA        ",
"      nq0  GGppppGG  0qn        ",
"      qq7  KJllllJK  7qq        ",
"      qqq  h::;;::h  qqq        ",
"          j:;;OO;;:j            ",
"          :;OOOOOO;:            ",
"          :OOOOOOOO:            ",
"           OOO  OOO             ",
"           ooo  ooo             ",
"           ...  ...             ",
"          XXXX  XXXX            "
};
