/* XPM */
static char *_5a8d58e59704c93db71298579fb48f1OMJPv9GDvhL7GdUz[] = {
/* columns rows colors chars-per-pixel */
"32 32 129 2 ",
"   c #52443D",
".  c #58463C",
"X  c #554644",
"o  c #584743",
"O  c #564946",
"+  c #5C4C45",
"@  c #564949",
"#  c #5C4E49",
"$  c #5E504B",
"%  c #614E44",
"&  c #645246",
"*  c #695547",
"=  c #6D5847",
"-  c #64534B",
";  c #6B564C",
":  c #6C5A4D",
">  c #725D4D",
",  c #6A5650",
"<  c #675850",
"1  c #6C5A51",
"2  c #715E53",
"3  c #76604E",
"4  c #78614F",
"5  c #6F6155",
"6  c #756153",
"7  c #7A6454",
"8  c #7C6857",
"9  c #746359",
"0  c #79675A",
"q  c #7D6A5B",
"w  c #7F7060",
"e  c #846B57",
"r  c #886E57",
"t  c #836D5B",
"y  c #8A6E5C",
"u  c #85715E",
"i  c #8C725D",
"p  c #94765D",
"a  c #857261",
"s  c #8B7562",
"d  c #8D7865",
"f  c #907762",
"g  c #947C65",
"h  c #9A7E66",
"j  c #947D6A",
"k  c #997E68",
"l  c #9D8065",
"z  c #97806C",
"x  c #9C846B",
"c  c #9C8571",
"v  c #9F8B70",
"b  c #A38467",
"n  c #A4866B",
"m  c #A4896D",
"M  c #AB8B6C",
"N  c #B18E6E",
"B  c #B3906F",
"V  c #A48D73",
"C  c #AB8D72",
"Z  c #A08C78",
"A  c #B08F73",
"S  c #A79277",
"D  c #AC9275",
"F  c #A7937B",
"G  c #AD9579",
"H  c #B39374",
"J  c #B99675",
"K  c #B39877",
"L  c #BB9A75",
"P  c #B2967A",
"I  c #B2997C",
"U  c #BC9D7C",
"Y  c #BEA17E",
"T  c #C19F7B",
"R  c #C4A37D",
"E  c #C9A67E",
"W  c #CAA97F",
"Q  c #AD9781",
"!  c #AE9882",
"~  c #B59D82",
"^  c #BA9D82",
"/  c #B7A085",
"(  c #BCA284",
")  c #BEA887",
"_  c #BDA68B",
"`  c #BEA88C",
"'  c #C4A581",
"]  c #C9A781",
"[  c #CDAB83",
"{  c #CCA985",
"}  c #CCAB84",
"|  c #CCAD86",
" . c #C1A689",
".. c #C2A98B",
"X. c #CAAB8A",
"o. c #CDAD88",
"O. c #D0AE84",
"+. c #D1AE85",
"@. c #D0AD86",
"#. c #D1AE89",
"$. c #CFB08A",
"%. c #D2B087",
"&. c #D3B289",
"*. c #D0B08A",
"=. c #D3B28B",
"-. c #D5B58E",
";. c #D5B68F",
":. c #C2AD92",
">. c #CCAF90",
",. c #C7B196",
"<. c #C8B194",
"1. c #C8B298",
"2. c #CAB69B",
"3. c #D6B690",
"4. c #D7BC96",
"5. c #DBBC95",
"6. c #D2BB9E",
"7. c #DABD9A",
"8. c #D1BEA3",
"9. c #D3BDA4",
"0. c #D9BFA1",
"q. c #DEC29C",
"w. c #D1C0A6",
"e. c #DEC5A3",
"r. c #DBC3A4",
"t. c #DCC5A7",
"y. c #DEC9AB",
"u. c #E1C9A9",
"i. c #E4CEB2",
/* pixels */
"+ : 8 8 8 7 7 - + + & 6 8 8 8 : + & 6 6 6 7 6 + + : 8 8 q 8 > + ",
". ( t.y.r.>.0.^ - - g 2.w.8.8.~ = Z 2.~ <.8.6.t   ( i.u.u.u.o.7 ",
"e o.*.$.o.} o.} y - K ( ( ( Y I 8 G ( I I ( ( j + o.3.-.-.-.} i ",
"h | | | } } } } f > K U U U U I 8 G K K I I I j * ] *.*.*.*.R p ",
"h ] | | } } T ' g 8 K K G U U I 6 D K K G K K j = ] %.*.*.@.@.p ",
"h R | } ] } E E x 8 G K V I U V 6 V K P K K G j = ] } %.%.@.} p ",
"g H ' U ' U E R g 6 m P P K x a : x G G G G V g ; E ] [ @.@.L i ",
"s x g g g g n M f ; g j d z s 1 1 u g s g z g s % H R W W E H 7 ",
"+ - 1 2 1 1 : ; - X - ; 1 1 1 $ - - 1 1 1 2 2 , o : 6 7 7 7 : + ",
"+ ! <.1.,.:.:.F 1 # Z ` ` _ ~ q j ~ ` :.:.:.:.Q + Z ~ _ / c Z s ",
"8 ^ ~ ~ ~ ~ ~ S s 1 / ) I I / t C I ( ~ ~ ~ ~ Z 1 I ( ( ( S S a ",
"8 G I I I I I V d 1 c K V K I 8 C P I I ~ ~ V z 1 V G G G G D t ",
"8 G K I I I G Z d 2 V G G K V 8 V P G V I I G g 1 c S G G D D 8 ",
"6 D G S G G V v s 6 V G G G m t c G G S G G V g : z D D D D D a ",
": m V x S S S x a : f x V V V 8 d V c V V V m g - d V V V D D u ",
"- 6 8 0 q q w a 5 o 8 t t u u - 1 8 t t 8 8 7 2 o q a q a s d - ",
"o 8 Z j c z j s ; - q q q 0 8 # # < 9 8 9 1 - 9 -   1 6 2 - o o ",
"> ' 4.7.t.e.5.o.n s  .....( ( 8 q _ 6.8.9.H s 0 $ i -.q.4.' y o ",
"6 ] @.%.%.@.T | M s P P P P ^ 8 d $.@.-.#.H g 9 o p *.5.5.] b - ",
"6 E R | | @.@.} M 6 G P P P G 8 j | [ *.@.E m 1 o y ] @.@.] C ; ",
"8 R R ] ] @.@.} m 2 G G G P G 8 k | @.@.} T P t X p E | | } L ; ",
"8 J E R [ @.| ' n ; C G G P D 8 h } [ @.] Y U i X p R [ | [ J > ",
"1 l D H R U L M 8 - g m G C x 8 i R ] ] E L M i X r J E R H M = ",
"O + + : 8 e e : + o : 8 s e t : - 6 s f i i 8 # @ + i g i i 6 o ",
"+ V P ( (  . .U e % ( ` ` _ ~ 2 + t  .>.X.X.U ; @ O g ` _ _ g o ",
"6 [ @.5.5.5.5.*.b % 5.q.q.q.q.H + M 7.e.q.*.*.f O ; ' 4.4.7.K ; ",
"8 ] @.@.@.@.@.R M & } %.%.%.@.J * C @.@.@.@.#.b o e E %.@.#.J - ",
"6 ] @.@.@.@.@.E n % [ @.@.@.[ J * M @.@.@.[ @.n o g E | #.| A - ",
"6 E | | @.E [ W n > R @.@.@.@.H = n @.| [ [ [ n o b E | ] ] C = ",
"2 E [ W [ [ @.E l : E [ [ E L N > l R [ [ ] L l o M R E ] ] H 6 ",
": J T N H H L L 6 + H N N N M N > e n B N M M 6 o n H L H H M > ",
"o 7 4 > 3 7 7 6 + % > : > 7 8 * & + > 3 > 3 > + + : > > > > > + "
};
