/* XPM */
static char *_c9a8b1a7e7f4b67bdf4dc7facece3fasBhqEAxuSgeQXgT1[] = {
/* columns rows colors chars-per-pixel */
"32 32 82 1 ",
"  c None",
". c #211C1A",
"X c #122020",
"o c #143828",
"O c #3F2331",
"+ c #422433",
"@ c #462634",
"# c #472734",
"$ c #482734",
"% c #512C36",
"& c #522C36",
"* c #532D36",
"= c #562E37",
"- c #572F37",
"; c #583037",
": c #5B3138",
"> c #5D3238",
", c #5D3338",
"< c #5E3338",
"1 c #5F3439",
"2 c #623639",
"3 c #653839",
"4 c #663939",
"5 c #673A3A",
"6 c #683B3A",
"7 c #693B3A",
"8 c #215D3C",
"9 c #137629",
"0 c #1D6E3D",
"q c #1A7A3E",
"w c #23663B",
"e c #20603C",
"r c #22693C",
"t c #71413B",
"y c #74433C",
"u c #77453C",
"i c #79473C",
"p c #7E4A3D",
"a c #663C43",
"s c #693F45",
"d c #346552",
"f c #53424C",
"g c #584E61",
"h c #7D6470",
"j c #824D3E",
"k c #824A4C",
"l c #854C4E",
"z c #8E5252",
"x c #995D55",
"c c #BB7547",
"v c #A1635D",
"b c #93756B",
"n c #A0716C",
"m c #A4756F",
"M c #178A37",
"N c #178B37",
"B c #188639",
"V c #188838",
"C c #169433",
"Z c #169533",
"A c #169632",
"S c #169234",
"D c #2F913B",
"F c #14A02E",
"G c #28AA30",
"H c #2BAB30",
"J c #3AB232",
"K c #3CB332",
"L c #44912F",
"P c #539734",
"I c #48AE37",
"U c #42B633",
"Y c #59C135",
"T c #428A5F",
"R c #73A974",
"E c #859872",
"W c #8B9A75",
"Q c #C8887B",
"! c #8B93AF",
"~ c #C39287",
"^ c #D29687",
"/ c #D19B8D",
/* pixels */
"             cccccc             ",
"            cyyyyyyc            ",
"           cut>>>>tuc           ",
"           it>::::>ti           ",
"          ct>::::::>tc          ",
"          p1@@::::@@1p          ",
"         c1@rr@::@rr@1c         ",
"         j$wqqw$$wqqw$j         ",
"       YYt+IoooPPoooI+tYY       ",
"     YYGG2+YLXXYYXXLY+2GGYY     ",
"     GGBB:+GG99DD99GG+:BBGG     ",
"     VVee:+VFFFSSFFFV+:eeVV     ",
"          +qFFFFFFFFq+          ",
"            MMFFFFMM            ",
"          czdWMMMMWdzc          ",
"         !bhfnEEEEnfhb!         ",
"         RTg44m^^m44gTR         ",
"         JF+4t4xx4t4+FJ         ",
"        KFF+:tttttt:+FFK        ",
"        FFF+*7tttt7*+FFF        ",
"        FFF +*7777*+ FFF        ",
"       UFA  ss****ss  AFU       ",
"       FA0  QQaaaaQQ  0AF       ",
"       Aq8  /~vvvv~/  8qA       ",
"       qqq  k::::::k  qqq       ",
"           z:::--:::z           ",
"           l::-++-::l           ",
"           ::-++++-::           ",
"            ;++  ++;            ",
"            OOO  OOO            ",
"            ...  ...            ",
"           XXXX  XXXX           "
};
