/* XPM */
static char *_88f1c4531564c738cab15d14411d90c6IDrAl1QE1fjz7JU[] = {
/* columns rows colors chars-per-pixel */
"32 32 77 1 ",
"  c None",
". c #211C1A",
"X c #221C1A",
"o c #2A1E21",
"O c #122020",
"+ c #203524",
"@ c #3F2331",
"# c #373536",
"$ c #422433",
"% c #462634",
"& c #482834",
"* c #492834",
"= c #4A2934",
"- c #4C2A35",
"; c #4D2B35",
": c #4E2C35",
"> c #512C36",
", c #572F37",
"< c #5C3437",
"1 c #593038",
"2 c #5B3138",
"3 c #5D3338",
"4 c #5D3538",
"5 c #5F3638",
"6 c #603539",
"7 c #603738",
"8 c #633739",
"9 c #663A39",
"0 c #673B39",
"q c #663C39",
"w c #6A3F3A",
"e c #6F3F3B",
"r c #354037",
"t c #215F3C",
"y c #197527",
"u c #1F643C",
"i c #1D7535",
"p c #1A7A3E",
"a c #276C30",
"s c #25633B",
"d c #23663B",
"f c #22693C",
"g c #276B3D",
"h c #327132",
"j c #46493A",
"k c #71413B",
"l c #74433C",
"z c #77453C",
"x c #79473C",
"c c #7E4A3D",
"v c #38534F",
"b c #5D4B4F",
"n c #457767",
"m c #597477",
"M c #7E6B77",
"N c #905640",
"B c #995D42",
"V c #A26343",
"C c #A26543",
"Z c #A86744",
"A c #BB7547",
"S c #93756B",
"D c #178A37",
"F c #178B37",
"G c #188539",
"H c #169632",
"J c #169234",
"K c #278331",
"L c #2F913B",
"P c #14A02E",
"I c #26A930",
"U c #2BAB30",
"Y c #49902D",
"T c #549C35",
"R c #48AE37",
"E c #70AF39",
"W c #59C135",
/* pixels */
"             AAAAAAA            ",
"            Alll=lllA           ",
"           Azkkk2kkkzA          ",
"           xkkkke3kkkx          ",
"          Akk====%kkkkA         ",
"          ck=$$$$,==kkc         ",
"          k;f$$0CZ$$;kk         ",
"          ;dp$06EET$$;k         ",
"           R+okKIIIs$$:         ",
"           WXYkGGGGp$$$         ",
"          pLyUkjtttr$$$         ",
"           JPP62###$$$          ",
"           PPP22>$$$$$          ",
"            PPh22$$$$           ",
"              iNN<<             ",
"              mSSbb             ",
"              Mnnvv             ",
"             BkFFuuk            ",
"             kkaPFF5k           ",
"            kk5$PPP$5           ",
"            k6$$PPP$$           ",
"             $$wPPP$$           ",
"             $qAPPPq$           ",
"              VVHHHV            ",
"              22ppp2            ",
"             222ggg2            ",
"             2,,,,,             ",
"              $$$$$             ",
"              $$$$$             ",
"               @@@              ",
"               XXX              ",
"              OOOO              "
};
