/* XPM */
static char *_ff842125e574256d1e28c267b1fbabfkfXIiZlMHgJt7cI6[] = {
/* columns rows colors chars-per-pixel */
"32 32 124 2 ",
"   c #302C2E",
".  c #52443D",
"X  c #58463C",
"o  c #554644",
"O  c #584743",
"+  c #564946",
"@  c #5C4C45",
"#  c #564949",
"$  c #5D4D48",
"%  c #5E504C",
"&  c #5A5353",
"*  c #614E44",
"=  c #645246",
"-  c #695547",
";  c #6D5847",
":  c #64534B",
">  c #6B564B",
",  c #6C5A4D",
"<  c #725D4D",
"1  c #6C5B52",
"2  c #715E53",
"3  c #76604E",
"4  c #78614F",
"5  c #6F6155",
"6  c #756153",
"7  c #7A6454",
"8  c #7C6857",
"9  c #746259",
"0  c #7A675A",
"q  c #7D6A5B",
"w  c #7F7060",
"e  c #F47E1B",
"r  c #E6482E",
"t  c #846B57",
"y  c #886E57",
"u  c #836D5B",
"i  c #8A6E5C",
"p  c #85715E",
"a  c #8C725D",
"s  c #94765D",
"d  c #857261",
"f  c #8B7462",
"g  c #8D7865",
"h  c #917761",
"j  c #947B65",
"k  c #9A7E66",
"l  c #947D6A",
"z  c #F4B41B",
"x  c #9D8065",
"c  c #97816D",
"v  c #9D846B",
"b  c #9C8571",
"n  c #9F8B70",
"m  c #A38467",
"M  c #A4866B",
"N  c #A4896D",
"B  c #AB8B6C",
"V  c #B18E6E",
"C  c #B3906F",
"Z  c #A48C73",
"A  c #AB8D72",
"S  c #A08C78",
"D  c #B08F73",
"F  c #A79277",
"G  c #AC9275",
"H  c #A7937B",
"J  c #AD9579",
"K  c #B39373",
"L  c #B99675",
"P  c #B39877",
"I  c #BB9A75",
"U  c #B2967B",
"Y  c #B2997B",
"T  c #BC9D7C",
"R  c #BEA17E",
"E  c #C19F7B",
"W  c #C4A37D",
"Q  c #C9A67E",
"!  c #CAA97F",
"~  c #FFD674",
"^  c #AE9882",
"/  c #B59D82",
"(  c #BB9E82",
")  c #B7A187",
"_  c #BCA284",
"`  c #BDA68B",
"'  c #BEA88C",
"]  c #C4A581",
"[  c #C9A781",
"{  c #CDAB84",
"}  c #C1A689",
"|  c #CCAC8A",
" . c #D1AE85",
".. c #D0AE88",
"X. c #CFB08A",
"o. c #D2B087",
"O. c #D3B289",
"+. c #D0B08A",
"@. c #D3B28C",
"#. c #D5B58E",
"$. c #D5B68F",
"%. c #C1AB90",
"&. c #C3AD91",
"*. c #CCAF90",
"=. c #C7B196",
"-. c #C8B195",
";. c #C8B298",
":. c #CAB69B",
">. c #D6B690",
",. c #D7BC96",
"<. c #DBBC95",
"1. c #D2BB9E",
"2. c #DABD9A",
"3. c #D1BEA3",
"4. c #D9BFA1",
"5. c #DEC29C",
"6. c #D1C0A6",
"7. c #DEC5A3",
"8. c #DBC3A4",
"9. c #DCC5A7",
"0. c #DEC9AB",
"q. c #E1C9A9",
"w. c #E4CEB2",
"e. c #FFECD7",
/* pixels */
"@ , 8 0 8 7 7 : @ @ = 6 0 0 0 , @ = 6 6 6 7 6 @ @ , 8 8 q 8 < @ ",
"X _ 9.0.8.*.4.( : : j :.6.3.3./ ; Z :./ -.3.1.u . _ w.q.q.q.| 7 ",
"t | +.X.| [ | { i : P _ _ _ R U 8 J _ Y Y _ _ l @ | >.#.#.#.{ a ",
"k { { { { { { { h < P T T T T U 8 J P P U Y Y l - [ +.+.+.o.W s ",
"k [ { { { { E ] j 8 P P J T T U 6 G P P J P P l ; [ o.+.+.....s ",
"k W { { [ { Q Q v 8 J P Z Y T Z 6 Z         J l ; [ { o.o...{ s ",
"j K ] T ] T Q W j 6 N J P P v f ,   ~ e.e.e.  j > Q [ { ....I a ",
"f v j j j j N B                   ~ z     z ~   * L W ! ! Q K 7 ",
"@ : 1 2 1 1 , >   ~ z z ~ ~ z z e.~   1 1   ~   O , 6 7 7 7 , @ ",
"@ ^ -.;.=.&.%.H   e r r e e e r r e   %.&.  e   @ S ( ` ) b S f ",
"8 ( / / / / / F   e     e         e r     r e   1 U _ _ _ F F f ",
"8 J Y Y Y Y Y Z   e     r   Y 8 A   e r r e   c 1 Z J J J J G u ",
"0 J P Y Y Y J Z g       e   Z 8 Z P         J j 1 b F J J G G 8 ",
"6 G J F J J Z n f 6 Z     J N u b J J F J J Z j , c G G G G G f ",
", N Z v F F Z v f , h v Z Z Z 8 g Z b Z Z Z N j : g Z Z Z G G p ",
": 6 0 0 q q w d 5 O 8 u u u p : 1 8 u u 8 8 7 2 O q d q f f g : ",
"O 8 S l b c l f , : q q q & & & & & & 0 9 1 : 9 : . 1 6 2 : O O ",
"< ] ,.2.9.7.<.| M f } & & & & & & & & & & K f 0 % a #.5.,.] i O ",
"6 [ ..o.o...E { B f & & & & & & & & & & & & j 9 O s +.<.<.[ m : ",
"6 Q W { { ....{ B 6 J & & & & & & & & & & Q N 1 O i [ ....[ A > ",
"8 W W [ [ ....{ M 2 J J J & & & & & & ..{ E K u o s Q { { { I > ",
"8 L Q W { ..{ ] M , A J J K G 8 k { { ..[ R T a o s W { { { L < ",
", x G K W T I B 8 : j N J A v 8 a W [ [ Q I B a o y L Q W L B ; ",
"+ @ @ , 8 i t , $ @ , 8 f i u , : 6 f h a a 8 $ # @ a j a a 6 O ",
"@ Z K _ _ } } T i * _ ' ' ` ( 2 @ u } *.| | T > # + j ' ` ` j O ",
"6 { { <.<.<.<.+.m * <.5.5.5.5.K @ B 2.7.5.@.+.h + > ] ,.,.2.P > ",
"8 [ { ........W B = { ..o.o...L - A .... .....m O i Q o.....P : ",
"6 [ ........ .Q M * { ......{ L - B ......{ ..M O j Q { ..{ D : ",
"6 Q { { ..Q { ! M < W  ... . .K ; M  .{ { { { M O m Q { [ [ A , ",
"2 Q { ! { {  .Q x , Q { { Q I V < x W { { [ I x O B W Q [ [ K 6 ",
", L E V K K I I 6 @ K V V V B V < t M C V B B 6 O M G L L K B < ",
"O 7 4 < 3 7 7 6 @ * < , < 7 8 - = @ < 3 < 3 < @ @ , < < < < < @ "
};
