/* XPM */
static char *_bd960feb9524ff4d5f02480245f44f80YURphpbokrCWXWs[] = {
/* columns rows colors chars-per-pixel */
"32 32 166 2 ",
"   c #262025",
".  c #292425",
"X  c #2A262C",
"o  c #2B292C",
"O  c #332B27",
"+  c #302D2D",
"@  c #35312C",
"#  c #2F2F30",
"$  c #312E32",
"%  c #343235",
"&  c #343338",
"*  c #38373E",
"=  c #3D3C3C",
"-  c #433B35",
";  c #433E3B",
":  c #46433F",
">  c #4A433C",
",  c #4E483F",
"<  c #58463C",
"1  c #3B3C44",
"2  c #3D3E48",
"3  c #413F43",
"4  c #3E414D",
"5  c #464444",
"6  c #4B4643",
"7  c #4E4843",
"8  c #41444D",
"9  c #4F4A4A",
"0  c #564745",
"q  c #534B45",
"w  c #5C4C44",
"e  c #544C49",
"r  c #56504E",
"t  c #5A524D",
"y  c #424652",
"u  c #454953",
"i  c #494D55",
"p  c #474C5A",
"a  c #494E5B",
"s  c #524F51",
"d  c #46515F",
"f  c #4B525D",
"g  c #535353",
"h  c #5A5552",
"j  c #5E5951",
"k  c #50535A",
"l  c #5B5E5F",
"z  c #604F47",
"x  c #635247",
"c  c #63534C",
"v  c #6C574D",
"b  c #6E5B4D",
"n  c #725D4D",
"m  c #645A51",
"M  c #6A5E54",
"N  c #715E52",
"B  c #77604E",
"V  c #78614F",
"C  c #6D665D",
"Z  c #756354",
"A  c #7A6453",
"S  c #7D6857",
"D  c #74675D",
"F  c #76685D",
"G  c #4C5563",
"H  c #4E5967",
"J  c #4E5969",
"K  c #515664",
"L  c #545A64",
"P  c #595E65",
"I  c #545C6A",
"U  c #595E69",
"Y  c #535F71",
"T  c #56606D",
"R  c #5A626C",
"E  c #576172",
"W  c #5B6571",
"Q  c #5E6973",
"!  c #5F6D79",
"~  c #60666F",
"^  c #61696D",
"/  c #686A6B",
"(  c #7A6D60",
")  c #786D69",
"_  c #797167",
"`  c #79706C",
"'  c #606771",
"]  c #636C75",
"[  c #626E79",
"{  c #667076",
"}  c #6C7577",
"|  c #65727C",
" . c #6A757D",
".. c #6D787E",
"X. c #727776",
"o. c #757B7C",
"O. c #846B57",
"+. c #836D5B",
"@. c #85735F",
"#. c #8D725B",
"$. c #94765E",
"%. c #847261",
"&. c #8B7562",
"*. c #89796C",
"=. c #9D826C",
"-. c #8B8179",
";. c #91847A",
":. c #A3896E",
">. c #AD8C6B",
",. c #B3997D",
"<. c #677681",
"1. c #6A7781",
"2. c #677882",
"3. c #6C7983",
"4. c #727E85",
"5. c #727E89",
"6. c #758287",
"7. c #7D8385",
"8. c #75848C",
"9. c #79868D",
"0. c #77888F",
"q. c #7A898E",
"w. c #768693",
"e. c #798793",
"r. c #778993",
"t. c #7B8C93",
"y. c #7E8E99",
"u. c #7E9096",
"i. c #7F9198",
"p. c #858B8B",
"a. c #818F95",
"s. c #818F99",
"d. c #829196",
"f. c #8A9294",
"g. c #83949A",
"h. c #8A959C",
"j. c #859A9E",
"k. c #89999E",
"l. c #939C9E",
"z. c #BBA082",
"x. c #BFAC93",
"c. c #8697A0",
"v. c #859BA2",
"b. c #8C9EA3",
"n. c #929EA3",
"m. c #8CA1A6",
"M. c #8EA3A9",
"N. c #95A2A7",
"B. c #98A1A4",
"V. c #93A4A9",
"C. c #9BA6A9",
"Z. c #9CA6AC",
"A. c #95AAAE",
"S. c #9FAAAE",
"D. c #94A7B1",
"F. c #97ABB5",
"G. c #9CABB2",
"H. c #A0ACB1",
"J. c #A6B2B7",
"K. c #A3B3BB",
"L. c #A3B6BC",
"P. c #A4B7BD",
"I. c #A8B6B8",
"U. c #B0B9BA",
"Y. c #C0A486",
"T. c #CCAB8B",
/* pixels */
"w b S %.m , > q D m x Z C > 7 > _ F F ( Z Z Z w w b *.F @.S n w ",
"< z.q 7.U.} C.B.f.p.X.o.n.} S.S.f.l f.o.5 - @ = = + = g ; x.T.A ",
"O.t f.I.q.6.t.n.J.J.J.H.f.4.q.d.Z.a.b.b.n.l.k.n.h.} N.n.{ = Y.#.",
"=.@ 7.4.j.v.v.g.g.N.N.6.g.v.v.v.g.P ] g.h.c.1.b.m.b.j.g.r.i Z $.",
"m / 9.m.v.V.A.v.m.g.} v.v.M.A.v.v.4.' L.K.D.8.b.m.b.b.g.| & @.$.",
"r l.M.j.v.v.v.v.v.q.q.v.v.v.v.v.v.0.Q L.P.F.4.h.b.k.g.| K o ,.$.",
"6 C.i.v.v.v.v.v.v.0.t.j.v.v.v.v.v.8.R v.v.t.' } 6.6.! f u # @.#.",
"7 7.1.0.t.t.t.t.t.0.} 8.t.t.t.t.0.[ 3.[ 4.h.Z.C.f.' U Q Q d q A ",
"t 4.~ [ [ |  .| [ ] ' [ [ |  . .] 6.r.5.G.k.g.h.h...5.8.| L h 0 ",
"; ^ ..q.8.8.6.6.8. . .q.0.8.6.6.3.6.3.h.h.g.y.y.y.5.5.8.1.P j &.",
"h d.t.d.g.g.g.g.g.4.d.d.g.g.g.g.g.u.t.4.t.y.y.t.0.8.3.8.1.R : %.",
"9 g.t.g.g.g.g.g.g.6.g.g.g.g.g.g.i.u.t. .5.e.5.r.t.e.' 1.[ I 6 +.",
"h q.8.i.u.u.u.g.u.6.0.i.u.u.u.i.i.u.t.t.8.[ | 5.8.R  .| f i > S ",
";.k R 4.t.t.t.u.u.u.3.3.0.t.t.u.u.u.u.u.t.t.t.| 8 ] 6.0.| K ; %.",
"` 7.' P P U W  .t.6.R U U U R [ 6.t.t.t.t.q.6.R 2 W [ | [ G : @.",
"q o.j.g.0.t.0. .K 3.q.t.t.t.0.3.a I I L K K 8 p 4 f L I L 1 m c ",
"q P 8.t.t.t.t.8.k 8.0.t.t.t.t.0.u [ 3.3...{ L T I y u a u & ; 0 ",
"; 8.0.0.t.t.t.P 0.0.0.0.t.t.t.R h.b.k.k.k.b.4.R I K 2 a I I & q ",
". 6.0.0.0.t.P f.t.0.0.0.0.e.R a.g.d.d.d.d.a.5. .[ R 8 I W I o c ",
"e 3.0.0.0.' q.g.t.0.0.0.0.....g.g.d.d.d.d.t.6.0.0.0.f 2 L y 6 v ",
"-.L 4.0.0.P t.g.g.t.0.0.0.] 8.a.g.d.d.d.d.6.0.0.0.3.f L a 2 % w ",
"q i [ [ [ R 4.t.g.t.0. .| R [ t.g.u.a.t.t.t.6.8.8.L Q W R L & q ",
"e 9.h.h.g.8.Q q.d.t.0.s.s.e.P 0.t.t.t.t.t.0.5.5. .[ | Q W R L g ",
"% 3.w.t.r.[ | 1.0.4.w.t.r.3.| 3.6.q.t.q.0.5.5.5.[ [ <.| [ R I s ",
"% P w.e.8.[ 2.<.| 1.w.e.w.[ 3.2.2.2.2.1.1.3.4.3.R L | | Q R k 9 ",
"5 y ] 3.Q <.2.2.2.| 5.w.[ 2.2.2.2.1.1.2.1.| <. .L W L T L f 3 w ",
"h p 2 a ! | | ! [ [ L f W | <.<.<.<.| | | | R i [ <.| K p p 5 c ",
") p 8 J J I J G G G y G J H I I T I I H H G G G d E E I a a e c ",
"Z 8 y H J H G G G G u d J H G G G G G G G G G G p G Y G a u M v ",
"N = u a J G G G G G a y J G G G G p a d d u u d G y K a p % :.A ",
"v ,.% * u a 4 * o + 3 1 4 a 4 1 X . .   . M ; & 8 u 1 8 $ Z >.n ",
"w A V Z e 6 7 S w z n b t > ; F x 0 b Z n B n M > > O c Z n n w "
};
