/* XPM */
static char *_3b563b51b5747dd8dab64421530c118ttvDDYApJJSuIHnJ[] = {
/* columns rows colors chars-per-pixel */
"32 32 174 2 ",
"   c #020405",
".  c #090606",
"X  c #0B0807",
"o  c #0C0908",
"O  c #120907",
"+  c #1A0D06",
"@  c #120B0A",
"#  c #1D0C08",
"$  c #17100F",
"%  c #1F130F",
"&  c #1E1713",
"*  c #1F1816",
"=  c #25130E",
"-  c #2F1B0C",
";  c #301C0C",
":  c #251612",
">  c #291611",
",  c #241B16",
"<  c #2D1A14",
"1  c #251E1C",
"2  c #2D1E18",
"3  c #341D16",
"4  c #2D261F",
"5  c #33211A",
"6  c #3A2019",
"7  c #3C291F",
"8  c #272020",
"9  c #2E2823",
"0  c #372623",
"q  c #332824",
"w  c #3C2922",
"e  c #3B2E2E",
"r  c #3C3126",
"t  c #2E2B30",
"y  c #322F35",
"u  c #343136",
"i  c #37383F",
"p  c #48240D",
"a  c #40241A",
"s  c #42281F",
"d  c #5A2E15",
"f  c #653318",
"g  c #442E24",
"h  c #4B2F28",
"j  c #463125",
"k  c #493326",
"l  c #4A362B",
"z  c #4C3A2D",
"x  c #54342C",
"c  c #55392C",
"v  c #453737",
"b  c #563E30",
"n  c #5B3B32",
"m  c #574438",
"M  c #5A473A",
"N  c #56483B",
"B  c #5E4B3B",
"V  c #6C4325",
"C  c #794B29",
"Z  c #795233",
"A  c #2A3743",
"S  c #2B3945",
"D  c #2E3C49",
"F  c #31414F",
"G  c #3E4C5B",
"H  c #564645",
"J  c #584743",
"K  c #554945",
"L  c #5C4C44",
"P  c #464F5E",
"I  c #48505E",
"U  c #5E5C58",
"Y  c #604F47",
"T  c #645347",
"R  c #695646",
"E  c #65534A",
"W  c #6B564C",
"Q  c #6D5A4C",
"!  c #725D4D",
"~  c #795C48",
"^  c #6C5C52",
"/  c #715E52",
"(  c #76604E",
")  c #7B614D",
"_  c #756153",
"`  c #7A6453",
"'  c #7D6857",
"]  c #7A6758",
"[  c #7D6A5A",
"{  c #80522F",
"}  c #985825",
"|  c #A1622B",
" . c #B77031",
".. c #BF7533",
"X. c #C3712F",
"o. c #C57935",
"O. c #80654D",
"+. c #856B56",
"@. c #896C55",
"#. c #826D5B",
"$. c #896E5D",
"%. c #86725F",
"&. c #8C725B",
"*. c #94765E",
"=. c #96785C",
"-. c #867260",
";. c #8B7462",
":. c #8C7864",
">. c #917661",
",. c #957C65",
"<. c #9C7E65",
"1. c #967E69",
"2. c #E58E3E",
"3. c #E5913F",
"4. c #9D8064",
"5. c #978168",
"6. c #9C846B",
"7. c #9B8571",
"8. c #A08267",
"9. c #AD8A67",
"0. c #A58569",
"q. c #A0886F",
"w. c #AB8B6B",
"e. c #B18E6E",
"r. c #B3906E",
"t. c #BF976F",
"y. c #A38C74",
"u. c #AD8C70",
"i. c #B08F73",
"p. c #AB9274",
"a. c #AD9579",
"s. c #B39372",
"d. c #B99775",
"f. c #BB9A76",
"g. c #B69678",
"h. c #B79879",
"j. c #BE9E7A",
"k. c #D19344",
"l. c #D3A24B",
"z. c #D6BE58",
"x. c #C19F7C",
"c. c #C4A37D",
"v. c #C9A67D",
"b. c #CAA97F",
"n. c #D1A679",
"m. c #AE9882",
"M. c #B39B81",
"N. c #BB9E82",
"B. c #BDA284",
"V. c #BEA68A",
"C. c #C4A582",
"Z. c #C8A781",
"A. c #CCAB84",
"S. c #CDAD89",
"D. c #D1AE85",
"F. c #D0AF88",
"G. c #CFB08A",
"H. c #D2B086",
"J. c #D3B28A",
"K. c #C6AF93",
"L. c #CCAF90",
"P. c #C8B194",
"I. c #CBB69B",
"U. c #D6B690",
"Y. c #D7BD97",
"T. c #DBBE96",
"R. c #D6BC9D",
"E. c #D1BDA2",
"W. c #D9BFA1",
"Q. c #D1C0A6",
"!. c #DCC4A6",
"~. c #DEC9AB",
"^. c #E1CAA9",
"/. c #E4CEB2",
/* pixels */
"L Q ] ] ] ` ] E L L T _ ] ] ] Q L T _ _ _ _ _ L L Q [ [ [ ' ! L ",
"M B.!.~.!.L.W.N.E E ,.I.Q.E.E.M.W y.I.N.P.E.R.#.N B./.^.^.^.S.` ",
"+.S.J.G.S.A.S.A.$.E 6.M z l l 9 w l l l N a.B.1.L S.U.J.J.J.A.&.",
"<.A.A.A.A.A.A.A.>.l , 3 3 3 3   3 3 3 3 @ g ( 1.R Z.J.J.J.J.c.*.",
"<.Z.A.A.A.A.x.@.s 3 @ 6 6 6 6   6 6 6 6 @ 3 6 g B Z.H.J.J.D.D.*.",
"<.c.A.A.Z.A.<.n x h $ x x x x   x x x x $ h x x n e.A.H.H.D.A.*.",
",.s.C.j.C.9.{ C C V = C C C C   C C C C = V C C C Z p.A.D.D.f.&.",
";.6.,.,.` > # # # + . # # # #   # # # # . + # # # O r f.b.v.s.` ",
"L E ^ E * O # # # + . # # # #   # # # # . + # # # O O g ` ` Q L ",
"L m.K._ O O # # # + . # # # #   # # # # . + # # # O O # y.7.y.;.",
"[ N.a.7 O O # # # + . # # # #   # # # # . + # # # O O # z a.a.-.",
"[ a.5.# O O # # # + . # # # #   # # # # . + # # # O O # O a.p.#.",
"] a.5.# O O # # # + . # # # #   # # # # . + # # # O O # O p.p.[ ",
"_ p.,.# O O # # # + . # # # #   # # # # . + # # # O O # O p.p.-.",
"W q.w.k.l.z.l.k.6 < o 3 3 3 3   3 3 3 3 o < 3 3 e P P I P p.p.%.",
"E _ +.2.2.3.2.2.a 3 @ 6 6 6 6   6 6 6 6 @ 3 6 0 S D D F S ;.:.E ",
"J ' w. .+ + + ..a 3 @ 6 6 6 6   6 6 6 6 @ 3 6 6 q A A S A E L H ",
"! Z.H...- + ; o.a 3 @ 6 6 6 6   6 6 6 6 @ 3 6 6 6 % : 6 + C.$.L ",
"_ Z.n.2.} + | 2.a 3 @ 6 6 6 6   6 6 6 6 @ 3 6 6 6 % : 6 + Z.8.E ",
"_ c.t.X.} p } X.6 3 @ 6 6 6 6   6 6 6 6 @ 3 6 6 w y u v t Z.u.W ",
"] c.r.f d d f f 6 3 @ 6 6 6 6   6 6 6 6 @ 3 6 6 i G G G G A.f.W ",
"] d.f.c : % 6 6 6 3 @ 6 6 6 6   6 6 6 6 @ 3 6 6 u S S D U A.d.! ",
"^ 4.p.~ : % 6 6 6 3 @ 6 6 6 6   6 6 6 6 @ 3 6 6 6 1 8 0 p.d.w.W ",
"K L L T 1 @ > > > = o > > > >   > > > > o = > > > @ # b &.&._ H ",
"L y.s.B.6.5 = = = = o = = = =   = = = = o = = = = @ q M.V.V.,.H ",
"_ A.D.T.T.p.5 = = = o = = = =   = = = = o = = = = 2 p.Y.Y.R.h.W ",
"[ Z.D.D.D.D.=.< = = X = = = =   = = = = X = = = < ! c.H.D.F.g.E ",
"_ Z.D.D.D.D.D.O.> # . # # # #   # # # # . + = < v ,.c.A.F.A.i.E ",
"_ c.A.A.D.v.A.A.0.w & # # # #   # # # # o 5 ) 0.J 8.c.A.Z.Z.u.W ",
"/ c.A.b.A.A.D.v.4.Q w.m k k g 4 5 7 j k B j.f.4.J w.c.c.Z.Z.s.` ",
"W d.x.e.s.d.f.f._ L s.e.e.e.w.e.! +.0.r.e.w.w.` L 0.s.f.g.s.w.! ",
"L ` ( ! ( ` ` ` L Y ! Q ! ` ' R T L ! ( ! ( ! L L Q ! ! ! ! ! L "
};
