/* XPM */
static char *_53e5fabb37c4dc4dedc8930598095baWDSKy4CZDAfXPRZj[] = {
/* columns rows colors chars-per-pixel */
"32 32 156 2 ",
"   c #0A0507",
".  c #0C0709",
"X  c #0F090B",
"o  c #110801",
"O  c #140E0E",
"+  c #1D0C08",
"@  c #17100F",
"#  c #171110",
"$  c #1C1514",
"%  c #25130D",
"&  c #371B0B",
"*  c #22121B",
"=  c #241C19",
"-  c #291F1B",
";  c #2B211C",
":  c #291620",
">  c #312324",
",  c #332924",
"<  c #3B272E",
"1  c #352B2C",
"2  c #3C2E2B",
"3  c #3F332B",
"4  c #44210E",
"5  c #4E2610",
"6  c #412018",
"7  c #532811",
"8  c #633B1D",
"9  c #432533",
"0  c #462932",
"q  c #492A33",
"w  c #492E38",
"e  c #403230",
"r  c #443930",
"t  c #4C3C32",
"y  c #463B39",
"u  c #543736",
"i  c #51353D",
"p  c #543C3B",
"a  c #504032",
"s  c #53433C",
"d  c #58463C",
"f  c #5C4A3C",
"g  c #73472B",
"h  c #7B4C29",
"j  c #604E3F",
"k  c #573D41",
"l  c #4F4240",
"z  c #564644",
"x  c #5B4743",
"c  c #554945",
"v  c #5C4C44",
"b  c #5E504A",
"n  c #614D44",
"m  c #634749",
"M  c #664A4A",
"N  c #694D4C",
"B  c #635245",
"V  c #6A5646",
"C  c #6E5947",
"Z  c #65534B",
"A  c #6B564B",
"S  c #6D5A4D",
"D  c #725D4D",
"F  c #6C5B51",
"G  c #705F54",
"H  c #76604E",
"J  c #78624E",
"K  c #756153",
"L  c #7A6453",
"P  c #7D6857",
"I  c #7B6659",
"U  c #7E6A5A",
"Y  c #836A55",
"T  c #836D5C",
"R  c #896E5D",
"E  c #86715D",
"W  c #8E745C",
"Q  c #92765D",
"!  c #91785D",
"~  c #866F60",
"^  c #867261",
"/  c #8C7463",
"(  c #8D7865",
")  c #8F766A",
"_  c #917661",
"`  c #957C65",
"'  c #9B7E66",
"]  c #90756A",
"[  c #957D6B",
"{  c #9D8065",
"}  c #96806A",
"|  c #9D846C",
" . c #9B8571",
".. c #9E8972",
"X. c #A18466",
"o. c #A4886B",
"O. c #AC8B6B",
"+. c #B18E6E",
"@. c #B3906F",
"#. c #A48C73",
"$. c #AD8D70",
"%. c #A48E78",
"&. c #B08F73",
"*. c #AB9276",
"=. c #AE957A",
"-. c #B39373",
";. c #B99675",
":. c #B39877",
">. c #BA9976",
",. c #B2977B",
"<. c #B3997B",
"1. c #BB9E7B",
"2. c #BEA17D",
"3. c #C19F7C",
"4. c #C4A37D",
"5. c #C9A67E",
"6. c #CAA97F",
"7. c #AE9882",
"8. c #B59D82",
"9. c #BB9E82",
"0. c #B7A187",
"q. c #BCA284",
"w. c #BDA58A",
"e. c #BEA88A",
"r. c #C4A582",
"t. c #C9A781",
"y. c #CDAB84",
"u. c #CCAB8B",
"i. c #CEAD89",
"p. c #D0AE84",
"a. c #D1AE85",
"s. c #D1AE86",
"d. c #D0AF88",
"f. c #CFB08A",
"g. c #D0B086",
"h. c #D2B18A",
"j. c #D5B68F",
"k. c #C3AD91",
"l. c #CCAF90",
"z. c #C7B196",
"x. c #C8B195",
"c. c #C8B298",
"v. c #CBB69B",
"b. c #D6B690",
"n. c #D7BC96",
"m. c #DCBE96",
"M. c #D2BB9E",
"N. c #D9BC9B",
"B. c #D1BDA2",
"V. c #D9BFA1",
"C. c #D1C0A6",
"Z. c #DBC3A4",
"A. c #DCC5A7",
"S. c #DEC9AB",
"D. c #E1CAA9",
"F. c #E4CEB2",
/* pixels */
"v S P I P P P Z v v B K I I I S v Z K K K K K v v S P P U P D v ",
"d q.A.S.Z.l.V.9.Z Z ` v.C.B.B.8.V #.v.8.x.B.M.T s q.F.D.D.D.u.L ",
"Y i.h.f.i.y.i.y.R Z :.q.q.q.2.,.P =.0.<.<.q.q.[ v i.b.j.j.j.y.W ",
"' y.y.y.y.y.y.y._ S :.1.1.1.1.,.P =.:.:.,.<.<.[ V t.h.h.h.h.4.Q ",
"' t.y.y.y.y.3.r.` P :.:.=.1.1.,.L *.:.:.=.:.:.[ C t.g.h.h.s.s.Q ",
"' 4.y.y.t.y.4.4.| P =.:.%.<.1.#.K #.:.:.:.:.=.[ C t.y.g.g.s.y.Q ",
"` -.r.1.r.1.4.4.` 6 6 :.:.:.| ^ A | =.=.=.6 6 ` V 4.t.y.s.s.>.W ",
"/ | ` ` ` ` o.O.6 7 7 6 / } / F F E ` / 6 7 7 6 n :.4.6.6.5.-.L ",
"v Z F G G F A A 8 h h 8 n F F b Z A F V 8 h h 8 z S K L P L S v ",
"v 7.x.c.z.k.w...4 7 7 4 L [ ] A I ) [ #.4 7 7 4 z [ 8.e.0. .#./ ",
"P 9.8.8.8.%.) u 4 7 7 4 u N N k m M m q 4 7 7 4 0 / =.0.0.=.=.^ ",
"P =.<.<.%./ M 0 4 5 5 4 9 9 0 0 9 9 9 9 4 5 5 4 9 i / #.=.=.*.T ",
"I =.:.#.~ x 0 : 4 5 5 4 8 8 8 h h 8 8 8 4 5 5 4 : 9 w T | *.*.P ",
"K *.=.( Z < : : 4 4 4 4 & 5 5 7 7 5 5 & 4 4 4 4 : : : s ) *.*.^ ",
"A o.%.K p : : : 4 4 4 4 : : : : : : : : 4 4 4 4 : : : 2 I *.*.E ",
"Z K I v 2 * : : % 4 4 % : : : : : : : : % 4 4 % : : : > Z / ( A ",
"z P %.A e X     + % % + 7 7 7 g g 7 7 7 + % % +       $ s Z v z ",
"D r.n.} s       + + + + & & 4 4 4 4 & & + + + +       , ` r.R v ",
"K t.s.W t       + + + +                 + + + +       3 ` t.X.Z ",
"K 4.4.o.j O     o + + o                 o + + o       f o.t.$.A ",
"P 4.4.:.D ;     o o o o & & & 4 4 & & & o o o o     @ J 1.y.>.A ",
"P ;.4.4.X.f X                                     . a X.y.y.;.D ",
"F { *.-.$.C ;                                     $ V -.4.:.O.C ",
"c v v S P V t # .                             . O 2 D ` W E K z ",
"v #.:.q.q.=.| S 2 O .                     O > , 1 y E e.e.e.` z ",
"K y.s.m.m.m.m.2.Y 2 B r , $ # - $ - = = ; B L D l V r.n.n.N.:.A ",
"P t.y.s.s.s.s.4.O.d o.W ! ! ! P t J W W ! o.1.X.z T 4.g.s.d.;.Z ",
"K t.s.y.s.s.s.t.o.n y.s.s.s.y.;.V O.s.s.s.y.s.o.z ` 4.y.d.y.&.Z ",
"K 4.y.y.s.5.y.y.o.D 4.s.s.s.s.-.C o.s.y.y.y.y.o.z X.4.y.t.t.$.C ",
"G 4.y.6.y.y.s.5.{ S 4.y.y.5.>.+.D { 4.y.y.t.>.{ z o.4.4.t.t.-.L ",
"A ;.3.+.-.-.>.>.K v -.+.+.+.O.+.D Y o.@.+.O.O.L v o.-.>.:.-.O.D ",
"v L J D H L L L v n D S D L P V B v D H D H D v v S D D D D D v "
};
